<svg version="1" xmlns="http://www.w3.org/2000/svg" width="793.333" height="793.333" viewBox="0 0 595.000000 595.000000"><path d="M278 42C168.4 50.6 76.2 128.4 49.7 234.7c-5.9 23.4-7.2 34.6-7.2 62.3.1 18.6.5 27.3 1.8 36 7.5 47.4 25.5 88.6 54.6 124.8 10.3 12.6 30.9 32.7 43.9 42.6 76.2 57.9 178.2 68.4 264.7 27.2 25.2-12 47.2-27.5 67.9-47.6 41.3-40.1 66.2-88.8 75.3-147 2.5-16.4 2.5-55.7-.1-72.5-11.3-73.7-51.9-137.3-113.6-177.8-12.9-8.4-38-21-52-26.1-32.5-11.7-73.3-17.3-107-14.6zm34.3 208c22.6 7 37.6 30.8 34 54.1-3 19.4-17.4 35.6-35.8 40.4-6.8 1.7-17.9 1.9-24.5.4-25.7-5.9-43-34.1-36.5-59.4 4.4-17.1 15.9-29.6 32.5-35.2 8.7-3 21.2-3.1 30.3-.3zm-94.2 73.5c8.8 26.4 29.2 45.9 56.4 54.1 8 2.4 10.6 2.7 23 2.7 12.3 0 15.1-.3 22.8-2.6 28.1-8.6 48.4-28.5 57.3-56.2l2.2-7 65.7-.3 65.7-.2-.7 6.2c-4.1 38.6-21 78.7-46.5 110.8-8.4 10.5-26.8 28.5-37.4 36.4-30.1 22.6-64.8 37-101.6 42.1-15.2 2.1-42.9 2.1-58 0-46.6-6.5-87.1-26.3-120.8-59-36.5-35.3-58.3-79.5-64.7-131.3l-.7-5.2 67.1.2 67.2.3 3 9z"/></svg>